<?xml version="1.0" encoding="UTF-8"?>
<svg id="Calque_1" data-name="Calque 1" xmlns="http://www.w3.org/2000/svg" viewBox="0 0 250 75.31">
  <defs>
    <style>
      .cls-1 {
        fill: #fff;
      }

      .cls-2 {
        fill: #c7b894;
      }

      .cls-3 {
        fill: #758587;
      }
    </style>
  </defs>
  <path class="cls-2" d="M187.38,70.32c.36,0,.8-.02,1.05-.05l1.45,4.89h2.04l-1.71-5.34c.69-.31,1.42-1.07,1.42-2.99,0-2.52-1.16-3.49-3.42-3.49h-2.88v11.81h2.04v-4.83ZM187.38,65.01h.73c1.09,0,1.49.41,1.49,1.81s-.4,1.82-1.49,1.82h-.73v-3.64ZM176.21,75.15v-1.76h-3.63v-3.47h2.61v-1.76h-2.61v-3.03h3.41v-1.78h-5.45v11.81h5.67ZM160.77,63.34h-2v11.82h2v-11.82ZM149.72,75.15v-1.76h-3.2v-10.05h-2.04v11.81h5.24ZM134.81,63.34h-2.03v11.82h2.03v-11.82ZM116.78,75.15h3.21c2.33,0,3.2-1.47,3.2-3.41,0-1.53-.62-2.34-1.63-2.8.98-.39,1.38-1.46,1.38-2.48,0-2-.95-3.13-3.13-3.13h-3.02v11.81ZM118.82,65.01h.76c.91,0,1.34.58,1.34,1.67,0,.98-.61,1.51-1.38,1.51h-.73v-3.18ZM118.82,69.86h.66c1.2,0,1.67.6,1.67,1.82s-.4,1.82-1.49,1.82h-.84v-3.64ZM103.12,66.27c0-.89.26-1.33,1.06-1.33s1.09.44,1.09,1.33v5.97c0,.89-.25,1.31-1.09,1.31s-1.06-.42-1.06-1.31v-5.97ZM101.09,72.3c0,1.67.98,3.01,3.09,3.01s3.12-1.34,3.12-3.01v-6.09c0-1.68-.98-3.03-3.12-3.03s-3.09,1.36-3.09,3.03v6.09ZM89.02,63.34l-1.46,6.91-1.45-6.91h-2.66v11.81h1.74v-9.21h.04l1.81,9.21h.98l1.86-9.21h.03v9.21h1.74v-11.81h-2.65ZM71.5,63.34l-1.45,6.91h-.04l-1.42-6.91h-2.68v11.81h1.78v-9.21h.04l1.81,9.21h.98l1.85-9.21h.04v9.21h1.75v-11.81h-2.66ZM56.27,63.34h-2.04v11.82h2.04v-11.82Z"/>
  <path class="cls-3" d="M228.59,28.28c0,.76,0,2.78-.14,4.78-.11,1.38-.55,2.44-1.49,2.62-.43.11-1.01.2-1.67.2-.51,0-.76.15-.76.38,0,.38.4.47,1.05.47,1.75,0,4.76-.14,5.96-.14,1.27,0,4.29.14,7.3.14.62,0,.98-.14.98-.47,0-.23-.22-.38-.76-.38-.65,0-1.71-.09-2.36-.2-1.45-.18-1.85-1.24-1.97-2.62-.14-2-.14-4.02-.14-4.78v-3.91c0-1.56,0-3.06.72-4.76.84-2.05,7.53-13.27,9.09-15.18,1.06-1.29,1.6-1.86,2.58-2.33.72-.38,1.63-.58,2.11-.58.51,0,.91-.14.91-.47,0-.3-.33-.39-.87-.39-.91,0-4.04.15-5.09.15-1.38,0-2.91-.15-4.51-.15-.55,0-.81.09-.81.44,0,.28.44.39.87.47.8.18.98.7.98,1.18,0,.64-.18,1.44-.65,2.49-.66,1.47-6.68,11.98-7.16,13.12-.76-1.35-7.45-12.83-8.11-14.26-.32-.67-.58-1.23-.58-1.62s.26-.76.69-.87c.7-.18,1.06-.23,1.06-.51,0-.29-.25-.44-.73-.44-2.14,0-4.1.15-5.12.15-1.56,0-5.13-.15-6-.15-.58,0-.91.15-.91.44,0,.33.33.42.73.42.58,0,1.38.3,2,.62.91.53,2.11,1.73,3.27,3.49,1.68,2.47,8.07,12.97,8.4,13.74.65,1.38,1.12,2.43,1.12,5v3.91ZM196.42,22.9c0,4.38,0,8.16-.22,10.16-.14,1.38-.43,2.44-1.38,2.62-.43.11-1.02.2-1.74.2-.55,0-.76.15-.76.38,0,.32.37.47.98.47,1.89,0,4.91-.14,6-.14,1.35,0,4.32.14,7.49.14.51,0,.91-.14.91-.47,0-.23-.25-.38-.76-.38-.73,0-1.78-.09-2.43-.2-1.42-.18-1.71-1.24-1.85-2.56-.26-2.05-.26-5.84-.26-10.21V3.35l6.04.14c4.21.09,5.52,1.44,5.6,2.68l.07.53c.04.71.15.94.51.94.29,0,.4-.29.44-.76,0-1.23.14-4.52.14-5.52,0-.72-.04-1-.4-1-.18,0-.54.09-1.27.24-.73.09-1.78.24-3.31.24h-18.87c-1.6,0-3.38-.09-4.76-.24C185.38.48,184.9,0,184.5,0c-.29,0-.43.3-.59.91-.07.38-.98,4.73-.98,5.49,0,.53.11.76.44.76.3,0,.4-.2.51-.58.1-.39.32-.94.79-1.65.73-1.05,1.89-1.29,4.65-1.4l7.09-.18v19.55ZM169.49,22.9c0,4.64,0,8.39-.25,10.4-.14,1.38-.43,2.2-1.38,2.38-.44.11-.98.2-1.71.2-.58,0-.76.15-.76.38,0,.32.33.47.94.47,1.93,0,4.91-.14,6.04-.14,1.27,0,4.29.14,7.41.14.55,0,.91-.14.91-.47,0-.23-.22-.38-.76-.38-.69,0-1.74-.09-2.43-.2-1.42-.18-1.75-1.05-1.89-2.33-.18-2.06-.18-5.81-.18-10.45v-8.39c0-7.25,0-8.58.07-10.1.11-1.68.47-2.49,1.78-2.73.54-.09.95-.15,1.42-.15s.76-.09.76-.47c0-.3-.36-.39-.98-.39-1.82,0-4.65.15-5.85.15-1.38,0-4.36-.15-6.18-.15-.76,0-1.16.09-1.16.39,0,.38.29.47.76.47.58,0,1.2.06,1.75.2,1.02.23,1.53,1.04,1.6,2.67.11,1.53.11,2.85.11,10.1v8.39ZM149.36,37.41c3.05,0,6.69-.35,8.58-1.11.84-.33,1.01-.56,1.24-1.38.51-1.62,1.06-5.76,1.06-6.34,0-.38-.07-.71-.43-.71s-.47.18-.62.94c-.18.87-.8,2.26-1.6,3.16-1.93,2.18-4.51,2.66-8.73,2.66-6.4,0-15.04-5.62-15.04-16.98,0-4.62.9-9.16,4.39-12.34,2.11-1.91,4.84-2.96,8.98-2.96,4.36,0,8.11,1.29,9.67,2.96,1.2,1.24,1.82,2.91,1.85,4.38,0,.67.11,1.06.47,1.06.43,0,.54-.38.58-1.1.11-.95.04-3.58.14-5.15.11-1.67.25-2.24.25-2.62,0-.29-.22-.53-.72-.58-1.42-.14-2.95-.56-4.76-.82C152.44.2,150.7,0,147.75,0c-7.12,0-11.66,1.91-15.08,5.06-4.58,4.2-5.6,9.83-5.6,13.07,0,4.64,1.23,9.98,5.92,14.09,4.32,3.76,9.82,5.2,16.36,5.2"/>
  <path class="cls-1" d="M100.28,17.98h.11c.62.64,4.33,4.83,8,8.49,3.52,3.45,7.82,7.86,9.96,9.89.36.38.76.74,1.12.74.29,0,.43-.31.43-1.06l.36-21.23c.04-1.89.33-2.6,1.27-2.87.4-.11.66-.11.98-.11.4,0,.62-.1.62-.29,0-.27-.33-.31-.76-.31-1.68,0-2.95.11-3.31.11-.72,0-2.32-.11-4.07-.11-.51,0-.87.04-.87.31,0,.2.11.29.54.29.47,0,1.27,0,1.78.22.8.33,1.09.96,1.13,3.02l.33,15.12h-.15c-.58-.53-5.12-5.38-7.41-7.67-4.9-4.89-10.03-10.38-10.43-10.81-.58-.6-.87-1.04-1.24-1.04s-.44.48-.44,1.14l-.33,19.92c-.04,2.93-.15,3.91-1.02,4.18-.47.13-1.09.16-1.52.16-.33,0-.54.07-.54.28,0,.31.29.34.73.34,1.78,0,3.34-.11,3.63-.11.65,0,2,.11,4.18.11.47,0,.8-.07.8-.34,0-.2-.22-.28-.58-.28-.55,0-1.2-.03-1.75-.23-.69-.23-1.13-1.1-1.2-3.72l-.37-14.14ZM78.19,26.92c0,3.11,0,5.76-.18,7.18-.14.98-.29,1.73-.98,1.85-.29.07-.68.12-1.19.12-.4,0-.55.11-.55.28,0,.23.22.34.65.34.69,0,1.56-.07,2.32-.07.83-.03,1.56-.03,1.92-.03,1.02,0,2.07.03,3.49.11,1.46.04,3.31.1,5.85.1,1.27,0,1.56,0,1.82-.87.14-.67.44-2.96.44-3.75,0-.33,0-.59-.29-.59-.22,0-.29.12-.36.5-.22,1.38-.62,2.09-1.53,2.49-.87.4-2.29.4-3.16.4-3.42,0-3.97-.51-4.04-2.82-.04-.98,0-4.09,0-5.23v-2.65c0-.2.04-.33.22-.33.8,0,4.15.02,4.76.09,1.27.15,1.75.64,1.89,1.31.11.44.11.87.14,1.22,0,.16.07.31.29.31.33,0,.33-.38.33-.66,0-.22.08-1.58.11-2.25.14-1.71.29-2.26.29-2.46s-.11-.27-.26-.27-.29.18-.55.44c-.29.35-.8.46-1.6.51-.76.07-4.65.07-5.38.07-.22,0-.25-.12-.25-.36v-8.52c0-.24.07-.35.25-.35.65,0,4.22.07,4.76.14,1.71.2,2.03.6,2.25,1.2.18.42.22.98.22,1.22,0,.31.07.48.29.48.26,0,.33-.2.33-.37.07-.42.15-1.89.18-2.24.11-1.54.29-1.94.29-2.18,0-.17-.04-.31-.22-.31s-.36.11-.54.14c-.26.06-.8.13-1.46.2-.61.04-7.34.04-8.4.04-.47,0-1.27-.04-2.15-.07-.83,0-1.81-.04-2.72-.04-.51,0-.73.07-.73.31s.22.29.58.29c.47,0,1.02.03,1.31.11,1.09.23,1.38.78,1.45,1.93.07,1.07.07,2.01.07,7.12v5.93ZM57.57,26.92c0,3.11,0,5.76-.18,7.18-.15.98-.29,1.73-.98,1.85-.29.07-.69.12-1.2.12-.4,0-.55.11-.55.28,0,.23.26.34.69.34.65,0,1.53-.07,2.29-.07.83-.03,1.56-.03,1.92-.03,1.02,0,2.07.03,3.52.11,1.42.04,3.27.1,5.82.1,1.27,0,1.56,0,1.82-.87.15-.67.44-2.96.44-3.75,0-.33,0-.59-.29-.59-.22,0-.29.12-.37.5-.22,1.38-.62,2.09-1.49,2.49-.87.4-2.29.4-3.17.4-3.45,0-4-.51-4.07-2.82-.03-.98,0-4.09,0-5.23v-2.65c0-.2.04-.33.22-.33.8,0,4.15.02,4.8.09,1.24.15,1.71.64,1.85,1.31.11.44.11.87.15,1.22,0,.16.07.31.29.31.32,0,.32-.38.32-.66,0-.22.11-1.58.11-2.25.15-1.71.29-2.26.29-2.46s-.11-.27-.25-.27-.29.18-.51.44c-.33.35-.84.46-1.63.51-.76.07-4.66.07-5.39.07-.22,0-.25-.12-.25-.36v-8.52c0-.24.07-.35.25-.35.66,0,4.22.07,4.76.14,1.71.2,2.04.6,2.26,1.2.18.42.22.98.22,1.22,0,.31.07.48.29.48.25,0,.33-.2.36-.37.03-.42.11-1.89.14-2.24.11-1.54.29-1.94.29-2.18,0-.17-.03-.31-.22-.31s-.36.11-.54.14c-.25.06-.8.13-1.45.2-.61.04-7.31.04-8.4.04-.47,0-1.23-.04-2.1-.07-.87,0-1.82-.04-2.73-.04-.51,0-.76.07-.76.31s.22.29.58.29c.47,0,1.06.03,1.31.11,1.12.23,1.38.78,1.45,1.93.07,1.07.07,2.01.07,7.12v5.93ZM36.79,13.44c0-.28.07-.42.33-.48.33-.11.9-.14,1.77-.14,1.96,0,5.13,1.38,5.13,6.16,0,2.76-.98,4.3-1.97,5.05-.62.44-1.05.58-2.4.58-.84,0-1.85-.11-2.54-.35-.26-.09-.33-.24-.33-.6v-10.23ZM32.82,26.92c0,3.11,0,5.76-.18,7.18-.11.98-.29,1.73-.98,1.85-.29.07-.69.12-1.2.12-.4,0-.55.11-.55.28,0,.23.25.34.69.34,1.35,0,3.45-.11,4.11-.11.51,0,2.98.11,4.94.11.43,0,.65-.11.65-.34,0-.17-.11-.28-.4-.28-.4,0-1.13-.05-1.64-.12-1.01-.13-1.2-.87-1.31-1.85-.18-1.42-.18-4.07-.18-7.19v-.47c0-.22.11-.27.29-.27l2.9.05c.26,0,.44.04.62.26.44.49,2,2.78,3.35,4.63,1.85,2.6,3.16,4.19,4.58,4.94.9.47,1.74.65,3.63.65h3.21c.4,0,.61-.07.61-.34,0-.17-.14-.28-.4-.28s-.58-.03-.95-.09c-.51-.11-1.89-.35-3.78-2.29-1.96-2.09-4.28-5.09-7.3-8.84,3.42-2.77,4.47-5.06,4.47-7.55,0-2.25-1.34-3.98-2.28-4.62-1.82-1.25-4.07-1.45-6.22-1.45-1.01,0-3.59.11-4.72.11-.72,0-2.83-.11-4.61-.11-.51,0-.76.07-.76.31s.22.29.57.29c.48,0,1.06.03,1.31.11,1.13.23,1.38.78,1.46,1.93.07,1.07.07,2.01.07,7.12v5.93ZM24.1,30.74c0-1.69,0-3.03.04-4.05.04-1.17.37-1.74,1.27-1.91.4-.07.66-.11.91-.11s.44-.05.44-.25c0-.28-.22-.35-.66-.35-1.12,0-2.91.11-3.96.11-.98,0-3.13-.11-4.87-.11-.47,0-.69.07-.69.35,0,.2.18.25.47.25.47,0,1.05.04,1.34.11,1.09.24,1.38.78,1.42,1.91.04,1.02.04,2.29.04,3.98v3.16c0,.58-.11,1.02-.62,1.25-.83.36-1.99.36-2.87.36-7.09,0-11.71-5.42-11.71-12.65,0-4.14,1.2-6.67,3.09-8.25,2.36-1.96,4.8-2.09,6.65-2.09,3.82,0,6.51,1.54,7.52,2.62.87.94,1.06,2.03,1.12,2.8.04.27.11.43.37.43s.36-.16.36-.71c0-4.2.22-5.14.22-5.51,0-.25-.07-.38-.47-.42-.76-.04-1.93-.24-2.66-.37-.65-.14-3.63-.55-5.96-.55-2.84,0-5.81.24-9.05,2.2C2.8,14.81,0,18.58,0,23.96,0,33.26,7.31,37.17,15.56,37.17c2.62,0,5.93-.38,8.11-1.53.4-.23.44-.29.44-1.2v-3.7Z"/>
</svg>